<svg width="112" height="23" viewBox="0 0 112 23" fill="none" xmlns="http://www.w3.org/2000/svg">
<path d="M0 3.41951C0 1.53097 1.4755 0 3.29563 0H27.0242C28.8443 0 30.3198 1.53097 30.3198 3.41952V18.4654C30.3198 20.354 28.8443 21.8849 27.0242 21.8849H3.29563C1.4755 21.8849 0 20.354 0 18.4654V3.41951Z" fill="white"/>
<path fill-rule="evenodd" clip-rule="evenodd" d="M8.70047 13.8979H7.33335C7.23979 13.8979 7.16022 13.9684 7.14564 14.0642L6.5927 17.7017C6.58171 17.7735 6.63528 17.8382 6.70545 17.8382H7.35813C7.45168 17.8382 7.53125 17.7677 7.54584 17.6717L7.69497 16.6906C7.70936 16.5945 7.78912 16.5241 7.88248 16.5241H8.31527C9.21584 16.5241 9.73556 16.0719 9.87136 15.1759C9.93251 14.7838 9.87395 14.4758 9.69698 14.26C9.50271 14.0232 9.15802 13.8979 8.70047 13.8979ZM8.8582 15.2264C8.78345 15.7355 8.40863 15.7355 8.0462 15.7355H7.8399L7.98463 14.7848C7.99322 14.7274 8.0412 14.6851 8.09718 14.6851H8.19173C8.43861 14.6851 8.67152 14.6851 8.79187 14.8311C8.86357 14.9182 8.88558 15.0476 8.8582 15.2264ZM12.7872 15.2101H12.1325C12.0767 15.2101 12.0285 15.2524 12.0199 15.3099L11.9909 15.4999L11.9451 15.4311C11.8034 15.2176 11.4874 15.1463 11.1719 15.1463C10.4484 15.1463 9.83057 15.7148 9.71021 16.5124C9.64767 16.9101 9.73658 17.2905 9.95407 17.5558C10.1536 17.7997 10.4391 17.9014 10.7787 17.9014C11.3616 17.9014 11.6849 17.5125 11.6849 17.5125L11.6557 17.7013C11.6447 17.7734 11.6982 17.8381 11.768 17.8381H12.3577C12.4515 17.8381 12.5306 17.7676 12.5454 17.6716L12.8993 15.3466C12.9105 15.2751 12.8571 15.2101 12.7872 15.2101ZM11.8746 16.5322C11.8114 16.9203 11.5145 17.1808 11.136 17.1808C10.9459 17.1808 10.7939 17.1176 10.6964 16.9977C10.5996 16.8787 10.5628 16.7091 10.5936 16.5204C10.6526 16.1356 10.9545 15.8667 11.3273 15.8667C11.5131 15.8667 11.6643 15.9307 11.7638 16.0516C11.8635 16.1738 11.9031 16.3443 11.8746 16.5322ZM15.616 15.21H16.2739C16.3661 15.21 16.4198 15.3172 16.3674 15.3957L14.1793 18.6728C14.1439 18.7259 14.0855 18.7575 14.0232 18.7575H13.3661C13.2736 18.7575 13.2195 18.6494 13.2731 18.5708L13.9544 17.5729L13.2298 15.3664C13.2047 15.2897 13.2593 15.21 13.338 15.21H13.9844C14.0684 15.21 14.1425 15.2672 14.1667 15.3506L14.5513 16.6833L15.4587 15.2965C15.4943 15.2424 15.5533 15.21 15.616 15.21Z" fill="#253B80"/>
<path fill-rule="evenodd" clip-rule="evenodd" d="M22.749 17.7019L23.3101 13.9979C23.3187 13.9404 23.3667 13.8981 23.4225 13.8979H24.0542C24.1239 13.8979 24.1775 13.9628 24.1665 14.0346L23.6132 17.6719C23.5987 17.7679 23.5192 17.8384 23.4255 17.8384H22.8613C22.7916 17.8384 22.738 17.7737 22.749 17.7019ZM18.4521 13.8981H17.0847C16.9914 13.8981 16.9118 13.9686 16.8972 14.0644L16.3443 17.7019C16.3333 17.7737 16.3868 17.8384 16.4567 17.8384H17.1583C17.2235 17.8384 17.2793 17.7891 17.2894 17.7219L17.4463 16.6908C17.4608 16.5947 17.5405 16.5243 17.6338 16.5243H18.0664C18.9672 16.5243 19.4868 16.0721 19.6227 15.176C19.684 14.784 19.6251 14.476 19.4482 14.2602C19.254 14.0234 18.9096 13.8981 18.4521 13.8981ZM18.6098 15.2266C18.5352 15.7356 18.1604 15.7356 17.7978 15.7356H17.5917L17.7366 14.785C17.7452 14.7276 17.7928 14.6853 17.8489 14.6853H17.9435C18.1902 14.6853 18.4233 14.6853 18.5436 14.8313C18.6154 14.9184 18.6372 15.0478 18.6098 15.2266ZM22.5384 15.2103H21.8842C21.8279 15.2103 21.7802 15.2526 21.7718 15.3101L21.7428 15.5001L21.6968 15.4313C21.5551 15.2178 21.2393 15.1465 20.9238 15.1465C20.2003 15.1465 19.5826 15.715 19.4623 16.5126C19.3999 16.9103 19.4885 17.2907 19.706 17.556C19.9059 17.7999 20.191 17.9016 20.5306 17.9016C21.1135 17.9016 21.4367 17.5126 21.4367 17.5126L21.4076 17.7015C21.3966 17.7736 21.4501 17.8383 21.5203 17.8383H22.1098C22.2031 17.8383 22.2827 17.7678 22.2973 17.6718L22.6514 15.3468C22.6622 15.2753 22.6086 15.2103 22.5384 15.2103ZM21.6259 16.5324C21.5631 16.9205 21.2658 17.181 20.8872 17.181C20.6975 17.181 20.5452 17.1178 20.4476 16.9979C20.3508 16.8789 20.3145 16.7093 20.3449 16.5206C20.4042 16.1358 20.7057 15.8669 21.0785 15.8669C21.2645 15.8669 21.4155 15.9309 21.5152 16.0518C21.6152 16.174 21.6548 16.3445 21.6259 16.5324Z" fill="#179BD7"/>
<path d="M13.7599 12.5965L13.928 11.4888L13.5536 11.4798H11.7659L13.0083 3.30593C13.0121 3.28125 13.0247 3.25824 13.043 3.2419C13.0613 3.22557 13.0848 3.21656 13.1092 3.21656H16.1236C17.1244 3.21656 17.815 3.43264 18.1756 3.85912C18.3446 4.05919 18.4523 4.26826 18.5044 4.49834C18.5589 4.73977 18.56 5.0282 18.5066 5.37999L18.5027 5.40567V5.63107L18.6718 5.73045C18.8142 5.8088 18.9272 5.8985 19.014 6.00121C19.1587 6.17226 19.2522 6.38967 19.2917 6.64743C19.3325 6.91252 19.319 7.22796 19.2522 7.58509C19.1751 7.99591 19.0504 8.3537 18.882 8.64647C18.727 8.91623 18.5297 9.13992 18.2955 9.31337C18.0718 9.47808 17.806 9.60316 17.5055 9.68321C17.2143 9.76182 16.8824 9.80156 16.5183 9.80156H16.2837C16.116 9.80156 15.953 9.86424 15.8251 9.97664C15.6969 10.0913 15.612 10.248 15.586 10.4194L15.5683 10.5192L15.2714 12.4714L15.2579 12.5431C15.2543 12.5659 15.2482 12.5772 15.2393 12.5849C15.2312 12.5918 15.2196 12.5965 15.2084 12.5965H13.7599Z" fill="#253B80"/>
<path d="M18.8318 5.4319C18.8229 5.49159 18.8126 5.55261 18.801 5.6153C18.4034 7.73304 17.0434 8.46463 15.3064 8.46463H14.422C14.2096 8.46463 14.0306 8.62468 13.9975 8.84209L13.5447 11.8218L13.4164 12.6664C13.3949 12.8092 13.501 12.9379 13.6398 12.9379H15.2084C15.3942 12.9379 15.5519 12.7978 15.5811 12.6078L15.5966 12.525L15.892 10.5803L15.9109 10.4737C15.9398 10.283 16.0979 10.1429 16.2837 10.1429H16.5183C18.038 10.1429 19.2278 9.5027 19.5755 7.65001C19.7207 6.87607 19.6455 6.22985 19.2612 5.77535C19.1449 5.6383 19.0006 5.5246 18.8318 5.4319Z" fill="#179BD7"/>
<path d="M18.4158 5.26004C18.3551 5.2417 18.2924 5.22503 18.2281 5.21002C18.1635 5.19536 18.0973 5.18235 18.0292 5.17101C17.7907 5.131 17.5295 5.11199 17.2496 5.11199H14.8869C14.8287 5.11199 14.7735 5.12566 14.724 5.15034C14.615 5.20469 14.534 5.31173 14.5144 5.44277L14.0117 8.74593L13.9975 8.84209C14.0306 8.62468 14.2096 8.46463 14.422 8.46463H15.3064C17.0434 8.46463 18.4034 7.73304 18.801 5.6153C18.8126 5.55261 18.8229 5.49159 18.8318 5.4319C18.7313 5.37655 18.6221 5.3294 18.5048 5.28905C18.4759 5.27905 18.4461 5.26938 18.4158 5.26004Z" fill="#222D65"/>
<path d="M14.5144 5.44277C14.534 5.31173 14.615 5.20469 14.724 5.15034C14.7735 5.12566 14.8287 5.11199 14.8869 5.11199H17.2496C17.5295 5.11199 17.7907 5.131 18.0292 5.17101C18.0973 5.18235 18.1635 5.19536 18.2281 5.21002C18.2924 5.22503 18.3551 5.2417 18.4158 5.26004C18.4461 5.26938 18.4759 5.27905 18.5048 5.28905C18.6221 5.3294 18.7313 5.37655 18.8318 5.4319C18.9501 4.6493 18.8311 4.11638 18.4233 3.63387C17.9737 3.10269 17.1622 2.87528 16.1239 2.87528H13.1094C12.8973 2.87528 12.7164 3.03533 12.6836 3.25307L11.4281 11.511C11.4033 11.6743 11.5247 11.8218 11.6835 11.8218L13.5447 11.8218L14.0117 8.74593L14.5144 5.44277Z" fill="#253B80"/>
<path d="M40.3403 2.98269C40.3403 1.47185 41.5039 0.24707 42.9392 0.24707H68.0613C69.4966 0.24707 70.6601 1.47185 70.6601 2.98269V19.3964C70.6601 20.9072 69.4966 22.132 68.0613 22.132H42.9392C41.5039 22.132 40.3403 20.9072 40.3403 19.3964V2.98269Z" fill="white"/>
<path fill-rule="evenodd" clip-rule="evenodd" d="M49.5448 15.0724H47.708L46.3306 9.54112C46.2652 9.28668 46.1264 9.06175 45.9222 8.95573C45.4127 8.6893 44.8512 8.47727 44.2386 8.37033V8.15738H47.1975C47.6059 8.15738 47.9122 8.47727 47.9632 8.84879L48.6779 12.8387L50.5138 8.15738H52.2995L49.5448 15.0724ZM53.3205 15.0724H51.5858L53.0142 8.15738H54.7489L53.3205 15.0724ZM56.9931 10.0731C57.0442 9.7007 57.3505 9.48774 57.7078 9.48774C58.2693 9.43427 58.881 9.54121 59.3914 9.80671L59.6977 8.31787C59.1873 8.10492 58.6257 7.99798 58.1162 7.99798C56.4325 7.99798 55.2074 8.95582 55.2074 10.2852C55.2074 11.2965 56.0752 11.8275 56.6878 12.1474C57.3505 12.4663 57.6057 12.6793 57.5547 12.9983C57.5547 13.4767 57.0442 13.6897 56.5346 13.6897C55.9221 13.6897 55.3095 13.5302 54.7489 13.2638L54.4426 14.7535C55.0552 15.019 55.7179 15.126 56.3304 15.126C58.2183 15.1785 59.3914 14.2216 59.3914 12.7853C59.3914 10.9766 56.9931 10.8706 56.9931 10.0731ZM65.4625 15.0724L64.0851 8.15738H62.6056C62.2993 8.15738 61.9931 8.37033 61.891 8.6893L59.3404 15.0724H61.1262L61.4826 14.062H63.6767L63.8809 15.0724H65.4625ZM62.8609 10.0196L63.3704 12.6258H61.942L62.8609 10.0196Z" fill="#172B85"/>
<path d="M81 2.73562C81 1.22478 82.1635 0 83.5988 0H108.721C110.156 0 111.32 1.22478 111.32 2.73562V19.1493C111.32 20.6601 110.156 21.8849 108.721 21.8849H83.5988C82.1635 21.8849 81 20.6601 81 19.1493V2.73562Z" fill="white"/>
<path d="M100.211 17.1486C103.476 17.1486 106.122 14.3304 106.122 10.854C106.122 7.37756 103.476 4.55936 100.211 4.55936C98.7477 4.55936 97.4087 5.12541 96.3765 6.06308C95.3442 5.12543 94.0052 4.55939 92.5421 4.55939C89.2774 4.55939 86.6308 7.37759 86.6308 10.854C86.6308 14.3305 89.2774 17.1487 92.5421 17.1487C94.0053 17.1487 95.3442 16.5826 96.3765 15.6449C97.4087 16.5826 98.7477 17.1486 100.211 17.1486Z" fill="#FF5E00"/>
<path d="M96.3765 15.6449C97.6475 14.4904 98.4534 12.7724 98.4534 10.854C98.4534 8.93555 97.6475 7.21763 96.3765 6.06308C97.4087 5.12541 98.7477 4.55936 100.211 4.55936C103.476 4.55936 106.122 7.37756 106.122 10.854C106.122 14.3304 103.476 17.1486 100.211 17.1486C98.7477 17.1486 97.4087 16.5826 96.3765 15.6449Z" fill="#FF5E00"/>
<path d="M96.3765 15.6449C97.6475 14.4904 98.4534 12.7724 98.4534 10.854C98.4534 8.93555 97.6475 7.21763 96.3765 6.06308C95.1055 7.21763 94.2996 8.93559 94.2996 10.854C94.2996 12.7724 95.1055 14.4904 96.3765 15.6449Z" fill="#FF5E00"/>
<path d="M105.807 10.9425C105.807 14.3583 103.133 17.1273 99.835 17.1273C96.5367 17.1273 93.8629 14.3583 93.8629 10.9425C93.8629 7.52665 96.5367 4.75759 99.835 4.75759C103.133 4.75759 105.807 7.52665 105.807 10.9425Z" fill="#F9A000"/>
</svg>
