<svg width="279" height="106" viewBox="0 0 279 106" fill="none" xmlns="http://www.w3.org/2000/svg">
<path d="M171.5 0.818359H111.5C107.337 0.818359 104.037 4.23629 104.037 8.4991L104 54.5835C104 58.8464 107.337 62.2643 111.5 62.2643H171.5C175.662 62.2643 179 58.8464 179 54.5835V8.4991C179 4.23629 175.662 0.818359 171.5 0.818359ZM171.5 54.5835H111.5V31.5413H171.5V54.5835ZM171.5 16.1798H111.5V8.4991H171.5V16.1798Z" fill="#6EA7B2"/>
<path d="M69.8205 84.8C70.7272 84.8 71.4685 84.9813 72.0445 85.344C72.6312 85.7067 73.0525 86.1653 73.3085 86.72C73.5645 87.2747 73.6925 87.8613 73.6925 88.48C73.6925 89.0987 73.5645 89.6853 73.3085 90.24C73.0525 90.784 72.6365 91.2373 72.0605 91.6C71.4845 91.952 70.7378 92.128 69.8205 92.128H67.3565V96H66.0125V84.8H69.8205ZM69.6445 90.928C70.4125 90.928 71.0525 90.7467 71.5645 90.384C72.0872 90.0107 72.3485 89.376 72.3485 88.48C72.3485 87.5947 72.0872 86.9707 71.5645 86.608C71.0525 86.2347 70.4125 86.048 69.6445 86.048H67.3565V90.928H69.6445ZM78.4599 96.112C77.7132 96.112 77.0732 95.92 76.5399 95.536C76.0172 95.152 75.6172 94.6293 75.3399 93.968C75.0625 93.3067 74.9239 92.56 74.9239 91.728C74.9239 90.896 75.0625 90.1493 75.3399 89.488C75.6279 88.816 76.0385 88.2933 76.5719 87.92C77.1159 87.536 77.7612 87.344 78.5079 87.344C79.2545 87.344 79.8572 87.52 80.3159 87.872C80.7745 88.224 81.1212 88.6453 81.3559 89.136H81.4679V87.568H82.8599V96H81.4679V94.272H81.3559C81.0999 94.7733 80.7372 95.2053 80.2679 95.568C79.7985 95.9307 79.1959 96.112 78.4599 96.112ZM78.8919 94.928C79.7132 94.928 80.3425 94.624 80.7799 94.016C81.2172 93.3973 81.4359 92.6347 81.4359 91.728C81.4359 90.8213 81.2172 90.064 80.7799 89.456C80.3425 88.8373 79.7132 88.528 78.8919 88.528C78.0492 88.528 77.4092 88.832 76.9719 89.44C76.5452 90.048 76.3319 90.8053 76.3319 91.712C76.3319 92.6293 76.5452 93.3973 76.9719 94.016C77.4092 94.624 78.0492 94.928 78.8919 94.928ZM85.4058 87.568H86.7818V96H85.4058V87.568ZM86.0778 86C85.8218 86 85.6084 85.9147 85.4378 85.744C85.2671 85.5627 85.1818 85.3493 85.1818 85.104C85.1818 84.8587 85.2671 84.6507 85.4378 84.48C85.6084 84.2987 85.8218 84.208 86.0778 84.208C86.3338 84.208 86.5471 84.2987 86.7178 84.48C86.8991 84.6507 86.9898 84.8587 86.9898 85.104C86.9898 85.3493 86.8991 85.5627 86.7178 85.744C86.5471 85.9147 86.3338 86 86.0778 86ZM92.8458 96.112C91.9818 96.112 91.2511 95.904 90.6538 95.488C90.0671 95.072 89.6298 94.528 89.3418 93.856C89.0538 93.184 88.9098 92.4747 88.9098 91.728C88.9098 90.9707 89.0538 90.2613 89.3418 89.6C89.6298 88.928 90.0724 88.384 90.6698 87.968C91.2671 87.552 91.9978 87.344 92.8618 87.344C93.9924 87.344 94.8938 87.7227 95.5658 88.48C96.2484 89.2373 96.5898 90.3253 96.5898 91.744V92.128H90.2858V92.24C90.2858 92.7093 90.3924 93.152 90.6058 93.568C90.8191 93.984 91.1178 94.32 91.5018 94.576C91.8858 94.832 92.3284 94.96 92.8298 94.96C93.3738 94.96 93.8431 94.8213 94.2378 94.544C94.6324 94.2667 94.9258 93.8933 95.1178 93.424H96.4778C96.2538 94.192 95.8324 94.832 95.2138 95.344C94.6058 95.856 93.8164 96.112 92.8458 96.112ZM95.2298 91.152C95.1871 90.192 94.9524 89.4987 94.5258 89.072C94.0991 88.6453 93.5391 88.432 92.8458 88.432C92.0884 88.432 91.4858 88.6827 91.0378 89.184C90.5898 89.6853 90.3498 90.3413 90.3178 91.152H95.2298ZM98.6219 87.568H99.9819V89.12H100.11C100.131 89.0133 100.238 88.8213 100.43 88.544C100.622 88.256 100.915 87.984 101.31 87.728C101.705 87.472 102.195 87.344 102.782 87.344C103.401 87.344 103.913 87.488 104.318 87.776C104.734 88.064 105.043 88.3733 105.246 88.704C105.449 89.0347 105.55 89.2427 105.55 89.328H105.678C105.827 88.9547 106.121 88.5333 106.558 88.064C107.006 87.584 107.689 87.344 108.606 87.344C109.289 87.344 109.859 87.52 110.318 87.872C110.777 88.2133 111.113 88.656 111.326 89.2C111.55 89.744 111.662 90.3253 111.662 90.944V96H110.302V91.072C110.302 90.2613 110.089 89.648 109.662 89.232C109.246 88.816 108.729 88.608 108.11 88.608C107.47 88.608 106.926 88.8267 106.478 89.264C106.041 89.6907 105.822 90.2933 105.822 91.072V96H104.462V91.072C104.462 90.2613 104.249 89.648 103.822 89.232C103.406 88.816 102.889 88.608 102.27 88.608C101.63 88.608 101.086 88.8267 100.638 89.264C100.201 89.6907 99.9819 90.2933 99.9819 91.072V96H98.6219V87.568ZM117.549 96.112C116.685 96.112 115.954 95.904 115.357 95.488C114.77 95.072 114.333 94.528 114.045 93.856C113.757 93.184 113.613 92.4747 113.613 91.728C113.613 90.9707 113.757 90.2613 114.045 89.6C114.333 88.928 114.776 88.384 115.373 87.968C115.97 87.552 116.701 87.344 117.565 87.344C118.696 87.344 119.597 87.7227 120.269 88.48C120.952 89.2373 121.293 90.3253 121.293 91.744V92.128H114.989V92.24C114.989 92.7093 115.096 93.152 115.309 93.568C115.522 93.984 115.821 94.32 116.205 94.576C116.589 94.832 117.032 94.96 117.533 94.96C118.077 94.96 118.546 94.8213 118.941 94.544C119.336 94.2667 119.629 93.8933 119.821 93.424H121.181C120.957 94.192 120.536 94.832 119.917 95.344C119.309 95.856 118.52 96.112 117.549 96.112ZM119.933 91.152C119.89 90.192 119.656 89.4987 119.229 89.072C118.802 88.6453 118.242 88.432 117.549 88.432C116.792 88.432 116.189 88.6827 115.741 89.184C115.293 89.6853 115.053 90.3413 115.021 91.152H119.933ZM123.325 87.568H124.701V89.088H124.829C125.042 88.5973 125.389 88.1867 125.869 87.856C126.349 87.5147 126.936 87.344 127.629 87.344C128.344 87.344 128.941 87.5147 129.421 87.856C129.901 88.1867 130.253 88.6293 130.477 89.184C130.712 89.728 130.829 90.32 130.829 90.96V96H129.453V91.136C129.453 90.304 129.234 89.6693 128.797 89.232C128.37 88.7947 127.81 88.576 127.117 88.576C126.381 88.576 125.794 88.816 125.357 89.296C124.92 89.7653 124.701 90.3787 124.701 91.136V96H123.325V87.568ZM135.065 88.672V93.568C135.065 93.9627 135.081 94.256 135.113 94.448C135.156 94.6293 135.257 94.7733 135.417 94.88C135.588 94.9867 135.86 95.04 136.233 95.04C136.489 95.04 136.767 95.0027 137.065 94.928V95.92C136.991 95.952 136.825 95.984 136.569 96.016C136.324 96.048 136.068 96.064 135.801 96.064C135.183 96.064 134.719 95.9787 134.409 95.808C134.111 95.6267 133.913 95.3867 133.817 95.088C133.732 94.7787 133.689 94.3733 133.689 93.872V88.672H132.121V87.568H133.689V84.8H135.065V87.568H137.065V88.672H135.065ZM145.658 96.112C144.975 96.112 144.383 95.9787 143.882 95.712C143.381 95.4347 142.997 95.0827 142.73 94.656C142.474 94.2293 142.346 93.7813 142.346 93.312V93.232H143.722V93.296C143.722 93.5627 143.797 93.8293 143.946 94.096C144.095 94.352 144.319 94.5653 144.618 94.736C144.917 94.896 145.279 94.976 145.706 94.976C146.218 94.976 146.639 94.8533 146.97 94.608C147.311 94.352 147.482 94.0053 147.482 93.568C147.482 93.2053 147.349 92.9173 147.082 92.704C146.826 92.4907 146.501 92.352 146.106 92.288L145.002 92.128C144.309 92.0213 143.727 91.7867 143.258 91.424C142.789 91.0507 142.554 90.512 142.554 89.808C142.554 89.0293 142.831 88.4267 143.386 88C143.951 87.5627 144.671 87.344 145.546 87.344C146.197 87.344 146.751 87.4667 147.21 87.712C147.679 87.9467 148.037 88.2613 148.282 88.656C148.527 89.04 148.65 89.4613 148.65 89.92V89.984H147.274V89.952C147.274 89.7387 147.215 89.5147 147.098 89.28C146.991 89.0453 146.805 88.8427 146.538 88.672C146.271 88.5013 145.93 88.416 145.514 88.416C145.002 88.416 144.591 88.544 144.282 88.8C143.973 89.0453 143.818 89.3707 143.818 89.776C143.818 90.1067 143.941 90.3787 144.186 90.592C144.431 90.8053 144.741 90.944 145.114 91.008L146.314 91.2C147.018 91.3173 147.61 91.5627 148.09 91.936C148.57 92.2987 148.81 92.8373 148.81 93.552C148.81 94.064 148.671 94.512 148.394 94.896C148.127 95.28 147.754 95.5787 147.274 95.792C146.794 96.0053 146.255 96.112 145.658 96.112ZM154.268 96.112C153.404 96.112 152.673 95.904 152.076 95.488C151.489 95.072 151.052 94.528 150.764 93.856C150.476 93.184 150.332 92.4747 150.332 91.728C150.332 90.9707 150.476 90.2613 150.764 89.6C151.052 88.928 151.494 88.384 152.092 87.968C152.689 87.552 153.42 87.344 154.284 87.344C155.414 87.344 156.316 87.7227 156.988 88.48C157.67 89.2373 158.012 90.3253 158.012 91.744V92.128H151.708V92.24C151.708 92.7093 151.814 93.152 152.028 93.568C152.241 93.984 152.54 94.32 152.924 94.576C153.308 94.832 153.75 94.96 154.252 94.96C154.796 94.96 155.265 94.8213 155.66 94.544C156.054 94.2667 156.348 93.8933 156.54 93.424H157.9C157.676 94.192 157.254 94.832 156.636 95.344C156.028 95.856 155.238 96.112 154.268 96.112ZM156.652 91.152C156.609 90.192 156.374 89.4987 155.948 89.072C155.521 88.6453 154.961 88.432 154.268 88.432C153.51 88.432 152.908 88.6827 152.46 89.184C152.012 89.6853 151.772 90.3413 151.74 91.152H156.652ZM153.772 86.432L155.34 83.568H156.812L154.876 86.432H153.772ZM163.644 96.112C162.769 96.112 162.028 95.904 161.42 95.488C160.822 95.072 160.38 94.5333 160.092 93.872C159.804 93.2 159.66 92.4853 159.66 91.728C159.66 90.9707 159.804 90.2613 160.092 89.6C160.38 88.928 160.822 88.384 161.42 87.968C162.028 87.552 162.769 87.344 163.644 87.344C164.732 87.344 165.585 87.6587 166.204 88.288C166.833 88.9173 167.212 89.6907 167.34 90.608H165.996C165.9 89.9893 165.654 89.488 165.26 89.104C164.865 88.7093 164.332 88.512 163.66 88.512C162.806 88.512 162.156 88.8213 161.708 89.44C161.27 90.048 161.052 90.8107 161.052 91.728C161.052 92.6453 161.27 93.4133 161.708 94.032C162.156 94.64 162.806 94.944 163.66 94.944C164.332 94.944 164.865 94.752 165.26 94.368C165.654 93.984 165.9 93.4773 165.996 92.848H167.34C167.212 93.7653 166.833 94.5387 166.204 95.168C165.585 95.7973 164.732 96.112 163.644 96.112ZM176.607 96H175.215V94.4H175.119C174.895 94.8907 174.548 95.3067 174.079 95.648C173.62 95.9787 173.055 96.144 172.383 96.144C171.679 96.144 171.092 95.9733 170.623 95.632C170.153 95.2907 169.807 94.848 169.583 94.304C169.369 93.76 169.263 93.168 169.263 92.528V87.568H170.639V92.352C170.639 93.1733 170.847 93.808 171.263 94.256C171.679 94.6933 172.223 94.912 172.895 94.912C173.599 94.912 174.159 94.6773 174.575 94.208C175.001 93.728 175.215 93.1093 175.215 92.352V87.568H176.607V96ZM178.824 87.568H180.2V88.912H180.296C180.434 88.5387 180.68 88.224 181.032 87.968C181.394 87.7013 181.848 87.568 182.391 87.568C182.562 87.568 182.696 87.5787 182.792 87.6C182.898 87.6107 183.016 87.6373 183.144 87.68L183.096 89.024C182.925 88.9707 182.776 88.9333 182.648 88.912C182.53 88.8907 182.376 88.88 182.184 88.88C180.861 88.88 180.2 89.664 180.2 91.232V96H178.824V87.568ZM184.906 87.568H186.282V96H184.906V87.568ZM185.578 86C185.322 86 185.108 85.9147 184.938 85.744C184.767 85.5627 184.682 85.3493 184.682 85.104C184.682 84.8587 184.767 84.6507 184.938 84.48C185.108 84.2987 185.322 84.208 185.578 84.208C185.834 84.208 186.047 84.2987 186.218 84.48C186.399 84.6507 186.49 84.8587 186.49 85.104C186.49 85.3493 186.399 85.5627 186.218 85.744C186.047 85.9147 185.834 86 185.578 86ZM191.674 96.112C190.991 96.112 190.399 95.9787 189.898 95.712C189.396 95.4347 189.012 95.0827 188.746 94.656C188.49 94.2293 188.362 93.7813 188.362 93.312V93.232H189.738V93.296C189.738 93.5627 189.812 93.8293 189.962 94.096C190.111 94.352 190.335 94.5653 190.634 94.736C190.932 94.896 191.295 94.976 191.722 94.976C192.234 94.976 192.655 94.8533 192.986 94.608C193.327 94.352 193.498 94.0053 193.498 93.568C193.498 93.2053 193.364 92.9173 193.098 92.704C192.842 92.4907 192.516 92.352 192.122 92.288L191.018 92.128C190.324 92.0213 189.743 91.7867 189.274 91.424C188.804 91.0507 188.57 90.512 188.57 89.808C188.57 89.0293 188.847 88.4267 189.402 88C189.967 87.5627 190.687 87.344 191.562 87.344C192.212 87.344 192.767 87.4667 193.226 87.712C193.695 87.9467 194.052 88.2613 194.298 88.656C194.543 89.04 194.666 89.4613 194.666 89.92V89.984H193.29V89.952C193.29 89.7387 193.231 89.5147 193.114 89.28C193.007 89.0453 192.82 88.8427 192.554 88.672C192.287 88.5013 191.946 88.416 191.53 88.416C191.018 88.416 190.607 88.544 190.298 88.8C189.988 89.0453 189.834 89.3707 189.834 89.776C189.834 90.1067 189.956 90.3787 190.202 90.592C190.447 90.8053 190.756 90.944 191.13 91.008L192.33 91.2C193.034 91.3173 193.626 91.5627 194.106 91.936C194.586 92.2987 194.826 92.8373 194.826 93.552C194.826 94.064 194.687 94.512 194.41 94.896C194.143 95.28 193.77 95.5787 193.29 95.792C192.81 96.0053 192.271 96.112 191.674 96.112ZM200.283 96.112C199.419 96.112 198.689 95.904 198.091 95.488C197.505 95.072 197.067 94.528 196.779 93.856C196.491 93.184 196.347 92.4747 196.347 91.728C196.347 90.9707 196.491 90.2613 196.779 89.6C197.067 88.928 197.51 88.384 198.107 87.968C198.705 87.552 199.435 87.344 200.299 87.344C201.43 87.344 202.331 87.7227 203.003 88.48C203.686 89.2373 204.027 90.3253 204.027 91.744V92.128H197.723V92.24C197.723 92.7093 197.83 93.152 198.043 93.568C198.257 93.984 198.555 94.32 198.939 94.576C199.323 94.832 199.766 94.96 200.267 94.96C200.811 94.96 201.281 94.8213 201.675 94.544C202.07 94.2667 202.363 93.8933 202.555 93.424H203.915C203.691 94.192 203.27 94.832 202.651 95.344C202.043 95.856 201.254 96.112 200.283 96.112ZM202.667 91.152C202.625 90.192 202.39 89.4987 201.963 89.072C201.537 88.6453 200.977 88.432 200.283 88.432C199.526 88.432 198.923 88.6827 198.475 89.184C198.027 89.6853 197.787 90.3413 197.755 91.152H202.667ZM199.787 86.432L201.355 83.568H202.827L200.891 86.432H199.787ZM209.611 96.112C208.747 96.112 208.017 95.904 207.419 95.488C206.833 95.072 206.395 94.528 206.107 93.856C205.819 93.184 205.675 92.4747 205.675 91.728C205.675 90.9707 205.819 90.2613 206.107 89.6C206.395 88.928 206.838 88.384 207.435 87.968C208.033 87.552 208.763 87.344 209.627 87.344C210.758 87.344 211.659 87.7227 212.331 88.48C213.014 89.2373 213.355 90.3253 213.355 91.744V92.128H207.051V92.24C207.051 92.7093 207.158 93.152 207.371 93.568C207.585 93.984 207.883 94.32 208.267 94.576C208.651 94.832 209.094 94.96 209.595 94.96C210.139 94.96 210.609 94.8213 211.003 94.544C211.398 94.2667 211.691 93.8933 211.883 93.424H213.243C213.019 94.192 212.598 94.832 211.979 95.344C211.371 95.856 210.582 96.112 209.611 96.112ZM211.995 91.152C211.953 90.192 211.718 89.4987 211.291 89.072C210.865 88.6453 210.305 88.432 209.611 88.432C208.854 88.432 208.251 88.6827 207.803 89.184C207.355 89.6853 207.115 90.3413 207.083 91.152H211.995Z" fill="#6EA7B2"/>
</svg>
