<svg width="242" height="61" viewBox="0 0 242 61" fill="none" xmlns="http://www.w3.org/2000/svg">
<path d="M24.5164 42.6827L36.735 50.0521L33.4925 36.1629L44.2876 26.8178L30.0721 25.6126L24.5164 12.5137L18.9606 25.6126L4.74512 26.8178L15.5402 36.1629L12.2977 50.0521L24.5164 42.6827Z" fill="#4A919F"/>
<path d="M71.9675 42.6827L84.1862 50.0521L80.9437 36.1629L91.7388 26.8178L77.5233 25.6126L71.9675 12.5137L66.4118 25.6126L52.1963 26.8178L62.9914 36.1629L59.7489 50.0521L71.9675 42.6827Z" fill="#4A919F"/>
<path d="M120.21 42.6827L132.917 50.0521L129.545 36.1629L140.772 26.8178L125.988 25.6126L120.21 12.5137L114.432 25.6126L99.6475 26.8178L110.874 36.1629L107.502 50.0521L120.21 42.6827Z" fill="#4A919F"/>
<path d="M167.66 42.6827L180.367 50.0521L176.995 36.1629L188.222 26.8178L173.438 25.6126L167.66 12.5137L161.882 25.6126L147.098 26.8178L158.325 36.1629L154.952 50.0521L167.66 42.6827Z" fill="#4A919F"/>
<path d="M167.66 42.6808L180.367 50.0502L176.995 36.1609L188.222 26.8158L173.438 25.6107L167.66 12.5117L161.882 25.6107L147.098 26.8158L158.325 36.1609L154.952 50.0502L167.66 42.6808Z" fill="#4A919F"/>
<path d="M215.771 42.1691L227.99 49.5385L224.747 35.6492L235.542 26.3041L221.327 25.0989L215.771 12L210.216 25.0989L196 26.3041L206.795 35.6492L203.553 49.5385L215.771 42.1691Z" fill="#4A919F"/>
</svg>
