<svg width="1578" height="1094" viewBox="0 0 1578 1094" fill="none" xmlns="http://www.w3.org/2000/svg">
<path d="M1325.18 848.208C1325.19 848.205 1325.2 848.203 1325.2 848.2L1325.17 848.109C1325.17 848.142 1325.18 848.175 1325.18 848.208ZM1329.62 812.612C1325.77 821.599 1324.01 832.995 1325.14 847.712C1328.21 846.819 1331.29 845.955 1334.36 845.096C1337.29 844.273 1340.21 843.454 1343.1 842.618C1360.25 837.374 1374.52 831.568 1384.8 823.22C1387.41 821.104 1389.76 818.824 1391.84 816.346C1394.18 813.328 1396.2 809.962 1397.82 806.18C1401.63 797.31 1403.31 786.127 1402.1 771.75C1398.85 772.655 1395.59 773.523 1392.33 774.389C1385.95 776.085 1379.61 777.772 1373.49 779.707C1363.89 782.741 1354.89 786.365 1347.31 791.532C1339.74 796.695 1333.57 803.401 1329.62 812.612Z" fill="#89A771" stroke="white"/>
<path d="M1328.37 848.31C1326.54 845.788 1324.69 843.254 1322.87 840.698C1312.35 851.534 1306.27 861.516 1303.41 870.876C1300.49 880.452 1300.94 889.403 1303.48 897.993C1306.03 906.592 1310.69 914.837 1316.21 922.989C1319.75 928.207 1323.62 933.363 1327.51 938.546C1329.47 941.154 1331.44 943.768 1333.36 946.401C1343.72 935.881 1349.71 926.116 1352.53 916.88C1353.75 912.853 1354.38 908.921 1354.5 905.065C1354.47 901.963 1354.12 898.852 1353.48 895.719C1350.91 883.092 1343.64 870.063 1333.76 855.754C1331.99 853.28 1330.19 850.801 1328.37 848.31Z" fill="#89A771" stroke="white"/>
<path d="M1401.75 860.245C1399.7 857.434 1397.64 854.609 1395.6 851.761C1383.82 863.9 1377.01 875.078 1373.82 885.56C1370.55 896.279 1371.04 906.295 1373.89 915.906C1376.74 925.526 1381.96 934.746 1388.13 943.863C1392.06 949.667 1396.37 955.406 1400.69 961.174C1402.92 964.141 1405.15 967.115 1407.34 970.11C1418.94 958.332 1425.66 947.396 1428.82 937.049C1430.17 932.634 1430.87 928.322 1431.02 924.091C1431.01 920.533 1430.62 916.964 1429.89 913.369C1426.98 899.072 1418.68 884.317 1407.43 868.084C1405.56 865.479 1403.66 862.868 1401.75 860.245ZM1395.99 851.363C1395.9 851.455 1395.81 851.548 1395.72 851.641L1396.05 851.44C1396.03 851.414 1396.01 851.388 1395.99 851.363ZM1407.73 970.589L1407.6 970.47C1407.63 970.519 1407.67 970.567 1407.71 970.616C1407.71 970.607 1407.72 970.598 1407.73 970.589Z" fill="#89A771" stroke="white"/>
<path d="M1489.45 847.31C1498.34 840.493 1506.39 830.389 1513.33 815.764C1509.58 815.083 1505.83 814.359 1502.08 813.637C1494.66 812.205 1487.28 810.78 1479.98 809.707C1468.58 808.031 1457.46 807.225 1446.88 808.604C1436.31 809.982 1426.28 813.542 1417.07 820.612C1408.06 827.522 1399.81 837.799 1392.6 852.713C1396.23 853.33 1399.85 853.978 1403.46 854.623C1406.99 855.256 1410.51 855.886 1414 856.479C1434.09 859.603 1451.63 860.794 1466.64 857.644C1470.39 856.857 1473.99 855.797 1477.43 854.427C1481.58 852.603 1485.6 850.264 1489.45 847.31ZM1513.98 815.881C1513.96 815.878 1513.94 815.875 1513.93 815.873L1513.97 815.891C1513.97 815.888 1513.98 815.885 1513.98 815.881ZM1392.42 853.217L1392.45 853.027C1392.42 853.087 1392.39 853.147 1392.36 853.207C1392.38 853.21 1392.4 853.214 1392.42 853.217Z" fill="#89A771" stroke="white"/>
<path d="M1129 814.617C1129 814.617 1258.25 853.184 1289.29 845.902C1320.34 838.62 1392.01 835.201 1428.13 877.659C1428.13 877.659 1467.03 910.506 1476.76 914.333" stroke="#7C9665" stroke-width="3" stroke-miterlimit="10"/>
<path d="M1436.82 881.53C1436.84 881.653 1436.85 881.775 1436.87 881.896L1436.91 881.543C1436.88 881.539 1436.85 881.535 1436.82 881.53ZM1545.19 957.381C1545.25 957.389 1545.31 957.397 1545.37 957.405C1545.37 957.394 1545.36 957.383 1545.36 957.372L1545.19 957.381ZM1532.86 955.789C1536.8 956.282 1540.75 956.775 1544.69 957.313C1542.35 940.646 1537.51 928.088 1530.83 918.507C1527.87 914.261 1524.54 910.595 1520.9 907.413C1518.01 905.042 1514.87 902.914 1511.51 900.991C1497.6 893.032 1479.82 888.582 1458.89 885.212C1455.34 884.692 1451.76 884.198 1448.17 883.701C1444.43 883.184 1440.67 882.664 1436.9 882.11C1439.43 899.149 1444.42 911.94 1451.18 921.647C1458.1 931.573 1466.89 938.301 1476.89 943.049C1486.9 947.802 1498.12 950.574 1509.88 952.578C1517.4 953.859 1525.11 954.822 1532.86 955.789Z" fill="#89A771" stroke="white"/>
<path d="M247.281 242.072C247.276 242.074 247.272 242.075 247.267 242.076L247.285 242.125C247.284 242.107 247.282 242.09 247.281 242.072ZM243.042 277.139C246.792 268.295 248.479 257.069 247.321 242.562C244.312 243.431 241.299 244.271 238.301 245.107C235.428 245.909 232.569 246.706 229.742 247.521C212.938 252.633 198.974 258.308 188.921 266.502C186.374 268.578 184.076 270.817 182.047 273.253C179.758 276.22 177.796 279.531 176.216 283.252C172.51 291.981 170.897 302.996 172.138 317.17C175.315 316.29 178.509 315.446 181.695 314.604C187.941 312.953 194.154 311.311 200.15 309.425C209.554 306.465 218.357 302.923 225.77 297.856C233.175 292.793 239.198 286.204 243.042 277.139Z" fill="#89A771" stroke="white"/>
<path d="M244.164 241.949C245.971 244.438 247.787 246.939 249.581 249.461C259.852 238.82 265.775 229.005 268.543 219.792C271.375 210.363 270.911 201.539 268.386 193.062C265.858 184.578 261.262 176.435 255.819 168.38C252.336 163.225 248.523 158.129 244.689 153.007C242.763 150.433 240.831 147.852 238.934 145.253C228.825 155.584 222.985 165.186 220.257 174.276C219.067 178.242 218.468 182.115 218.366 185.916C218.4 188.973 218.752 192.04 219.388 195.131C221.949 207.587 229.125 220.455 238.861 234.593C240.6 237.038 242.377 239.487 244.164 241.949Z" fill="#89A771" stroke="white"/>
<path d="M172.186 229.935C174.202 232.711 176.23 235.501 178.232 238.313C189.736 226.392 196.369 215.399 199.469 205.081C202.639 194.527 202.12 184.652 199.294 175.169C196.466 165.677 191.326 156.57 185.242 147.563C181.368 141.828 177.129 136.157 172.868 130.456C170.679 127.527 168.484 124.591 166.329 121.634C154.995 133.201 148.446 143.955 145.386 154.14C144.08 158.486 143.408 162.735 143.273 166.904C143.293 170.412 143.688 173.931 144.416 177.478C147.311 191.567 155.486 206.125 166.56 222.146C168.407 224.734 170.292 227.328 172.186 229.935ZM177.853 238.705C177.931 238.624 178.01 238.543 178.088 238.462L177.804 238.636C177.82 238.659 177.836 238.682 177.853 238.705ZM165.948 121.152L166.036 121.23C166.012 121.198 165.989 121.166 165.966 121.134C165.96 121.14 165.954 121.146 165.948 121.152Z" fill="#89A771" stroke="white"/>
<path d="M86.2411 242.408C77.55 249.097 69.691 259.027 62.9388 273.418C66.6188 274.101 70.296 274.827 73.9643 275.551C81.2442 276.987 88.4887 278.416 95.6494 279.498C106.829 281.188 117.736 282.019 128.099 280.695C138.455 279.372 148.275 275.896 157.286 268.959C166.091 262.18 174.145 252.079 181.165 237.405C177.602 236.785 174.052 236.134 170.519 235.487C167.051 234.851 163.6 234.219 160.174 233.622C140.463 230.477 123.264 229.244 108.563 232.299C104.888 233.063 101.368 234.095 98.0017 235.434C93.9343 237.218 90.0074 239.51 86.2411 242.408ZM62.3027 273.3C62.3033 273.3 62.3039 273.3 62.3045 273.3L62.3029 273.3C62.3028 273.3 62.3028 273.3 62.3027 273.3ZM181.351 236.911L181.327 237.065C181.35 237.016 181.373 236.967 181.396 236.918C181.381 236.916 181.366 236.913 181.351 236.911Z" fill="#89A771" stroke="white"/>
<path d="M439.748 275.827C439.748 275.827 312.893 237.38 282.483 244.455C252.072 251.531 181.806 254.664 146.257 212.689C146.257 212.689 108.005 180.18 98.4551 176.375" stroke="#7C9665" stroke-width="3" stroke-miterlimit="10"/>
<path d="M137.71 208.836C137.695 208.736 137.681 208.635 137.666 208.535L137.635 208.825C137.66 208.829 137.685 208.833 137.71 208.836ZM31.1746 133.715C31.1346 133.71 31.0946 133.704 31.0546 133.698C31.0557 133.706 31.0569 133.714 31.058 133.722L31.1746 133.715ZM43.3112 135.33C39.4487 134.833 35.5767 134.333 31.7148 133.791C34.0722 150.223 38.8589 162.615 45.4379 172.078C48.3542 176.273 51.6262 179.898 55.2019 183.047C58.0527 185.393 61.1337 187.502 64.4338 189.408C78.0836 197.293 95.5142 201.737 116.022 205.127C119.516 205.654 123.042 206.156 126.586 206.66C130.252 207.182 133.938 207.707 137.625 208.265C135.088 191.466 130.161 178.844 123.499 169.256C116.685 159.448 108.038 152.788 98.2187 148.074C88.3908 143.356 77.3826 140.586 65.848 138.572C58.4722 137.284 50.9101 136.31 43.3112 135.33Z" fill="#89A771" stroke="white"/>
</svg>
