<svg width="1023" height="775" viewBox="0 0 1023 775" fill="none" xmlns="http://www.w3.org/2000/svg">
<path d="M1021.78 483.484C1021.78 483.484 911.332 431.842 781.282 409.355C651.232 386.869 460.877 456.657 368.12 392.516C275.364 328.375 206.631 248.168 206.631 248.168" stroke="#66854C" stroke-width="3" stroke-miterlimit="10"/>
<path d="M55.6186 353.556C168.586 390.458 193.888 325.557 227.575 270.628C111.901 233.393 88.6787 297.958 55.6186 353.556ZM226.229 271.061C191.928 327.396 166.545 388.401 56.905 353.093C151.059 386.384 185.507 341.997 226.229 271.061Z" fill="#7C9665"/>
<path d="M5.70076 156.757C51.1767 265.239 133.759 255.21 212.539 256.595C165.403 145.752 84.7166 157.323 5.70076 156.757V156.757ZM211.156 255.724C130.512 254.473 51.7744 262.634 7.10866 157.578C42.533 249.182 111.438 256.147 211.156 255.724Z" fill="#7C9665"/>
<path d="M263.482 106.232C171.344 147.787 206.126 213.059 228.567 275.871C322.49 232.889 286.79 169.179 263.482 106.232V106.232ZM229.011 274.722C205.836 210.435 174.08 148.136 263.11 107.387C184.405 140.093 198.452 195.342 229.011 274.722Z" fill="#7C9665"/>
<path d="M339.165 201.169C258.156 217.159 273.712 275.533 279.96 329.669C362.67 312.86 346.064 255.566 339.165 201.169ZM280.509 328.82C273.975 273.38 260.255 217.924 338.635 201.996C269.968 213.438 270.904 259.978 280.509 328.82Z" fill="#7C9665"/>
<path d="M286.499 316.764C230.899 319.367 169.72 313.95 164.625 391.921C220.603 389.889 280.823 396.44 286.499 316.764ZM165.43 391.303C170.803 315.763 228.763 319.955 285.753 317.413C214.823 319.144 167.628 325.526 165.43 391.303Z" fill="#7C9665"/>
</svg>
