<svg width="245" height="96" viewBox="0 0 245 96" fill="none" xmlns="http://www.w3.org/2000/svg">
<path d="M241.978 53.6011C153.359 -19.9604 78.8094 15.9091 3.12249 41.164C94.3087 116.102 166.408 79.6045 241.978 53.6011ZM4.80377 41.4137C82.2119 15.4251 153.876 -17.6283 240.293 53.4004C168.3 -9.71347 99.6994 7.66584 4.80377 41.4137Z" fill="#7C9665"/>
<path d="M41.3024 41.4C42.3224 41.4 43.1624 41.604 43.8224 42.012C44.4824 42.42 44.9624 42.942 45.2624 43.578C45.5624 44.214 45.7124 44.892 45.7124 45.612C45.7124 46.32 45.5624 46.986 45.2624 47.61C44.9624 48.234 44.4824 48.75 43.8224 49.158C43.1624 49.554 42.3224 49.752 41.3024 49.752H38.7104V54H36.8924V41.4H41.3024ZM41.0504 48.168C41.8544 48.168 42.5324 47.976 43.0844 47.592C43.6364 47.208 43.9124 46.548 43.9124 45.612C43.9124 44.676 43.6364 44.022 43.0844 43.65C42.5324 43.266 41.8544 43.074 41.0504 43.074H38.7104V48.168H41.0504ZM53.9035 50.526H49.0255L47.8195 54H45.9295L50.5915 41.4H52.3555L57.0355 54H55.1455L53.9035 50.526ZM53.3815 49.05L51.4915 43.758H51.4015L49.5475 49.05H53.3815ZM50.7175 37.512H52.2295L54.6595 40.212H52.8595L51.4915 38.7H51.4195L50.0515 40.212H48.2875L50.7175 37.512ZM65.9398 43.056H62.3218V54H60.4678V43.056H56.8498V41.4H65.9398V43.056ZM69.7375 43.056V46.836H75.0115V48.33H69.7375V52.344H75.8035V54H67.8475V41.4H75.8035V43.056H69.7375ZM82.3619 54.144C81.3779 54.144 80.5319 53.946 79.8239 53.55C79.1279 53.142 78.5999 52.62 78.2399 51.984C77.8919 51.348 77.7179 50.682 77.7179 49.986V49.896H79.7699V49.986C79.7699 50.37 79.8599 50.754 80.0399 51.138C80.2199 51.51 80.5079 51.828 80.9039 52.092C81.2999 52.344 81.7979 52.47 82.3979 52.47C83.1299 52.47 83.7239 52.284 84.1799 51.912C84.6479 51.54 84.8819 51.036 84.8819 50.4C84.8819 49.872 84.7019 49.452 84.3419 49.14C83.9939 48.828 83.5499 48.618 83.0099 48.51L81.2819 48.168C80.5259 48.012 79.7939 47.694 79.0859 47.214C78.3899 46.722 78.0419 45.906 78.0419 44.766C78.0419 44.034 78.2159 43.392 78.5639 42.84C78.9239 42.288 79.4219 41.868 80.0579 41.58C80.6939 41.28 81.4199 41.13 82.2359 41.13C83.1719 41.13 83.9759 41.316 84.6479 41.688C85.3199 42.06 85.8239 42.546 86.1599 43.146C86.5079 43.734 86.6819 44.352 86.6819 45V45.072H84.6299V45.018C84.6299 44.694 84.5519 44.358 84.3959 44.01C84.2399 43.662 83.9759 43.368 83.6039 43.128C83.2439 42.876 82.7699 42.75 82.1819 42.75C81.4859 42.75 80.9339 42.942 80.5259 43.326C80.1299 43.698 79.9319 44.166 79.9319 44.73C79.9319 45.222 80.0999 45.624 80.4359 45.936C80.7839 46.248 81.2339 46.458 81.7859 46.566L83.3879 46.89C84.3119 47.082 85.1159 47.436 85.7999 47.952C86.4959 48.468 86.8439 49.266 86.8439 50.346C86.8439 51.09 86.6519 51.75 86.2679 52.326C85.8959 52.902 85.3679 53.352 84.6839 53.676C84.0119 53.988 83.2379 54.144 82.3619 54.144ZM100.345 50.526H95.4669L94.2609 54H92.3709L97.0329 41.4H98.7969L103.477 54H101.587L100.345 50.526ZM99.8229 49.05L97.9329 43.758H97.8429L95.9889 49.05H99.8229ZM110.168 54.162C108.572 54.162 107.33 53.676 106.442 52.704C105.554 51.732 105.11 50.316 105.11 48.456V41.4H106.946V48.384C106.946 49.404 107.162 50.328 107.594 51.156C108.038 51.972 108.896 52.38 110.168 52.38C111.404 52.38 112.238 51.972 112.67 51.156C113.114 50.34 113.336 49.416 113.336 48.384V41.4H115.19V48.456C115.19 50.316 114.74 51.732 113.84 52.704C112.952 53.676 111.728 54.162 110.168 54.162ZM125.973 54.144C124.989 54.144 124.143 53.946 123.435 53.55C122.739 53.142 122.211 52.62 121.851 51.984C121.503 51.348 121.329 50.682 121.329 49.986V49.896H123.381V49.986C123.381 50.37 123.471 50.754 123.651 51.138C123.831 51.51 124.119 51.828 124.515 52.092C124.911 52.344 125.409 52.47 126.009 52.47C126.741 52.47 127.335 52.284 127.791 51.912C128.259 51.54 128.493 51.036 128.493 50.4C128.493 49.872 128.313 49.452 127.953 49.14C127.605 48.828 127.161 48.618 126.621 48.51L124.893 48.168C124.137 48.012 123.405 47.694 122.697 47.214C122.001 46.722 121.653 45.906 121.653 44.766C121.653 44.034 121.827 43.392 122.175 42.84C122.535 42.288 123.033 41.868 123.669 41.58C124.305 41.28 125.031 41.13 125.847 41.13C126.783 41.13 127.587 41.316 128.259 41.688C128.931 42.06 129.435 42.546 129.771 43.146C130.119 43.734 130.293 44.352 130.293 45V45.072H128.241V45.018C128.241 44.694 128.163 44.358 128.007 44.01C127.851 43.662 127.587 43.368 127.215 43.128C126.855 42.876 126.381 42.75 125.793 42.75C125.097 42.75 124.545 42.942 124.137 43.326C123.741 43.698 123.543 44.166 123.543 44.73C123.543 45.222 123.711 45.624 124.047 45.936C124.395 46.248 124.845 46.458 125.397 46.566L126.999 46.89C127.923 47.082 128.727 47.436 129.411 47.952C130.107 48.468 130.455 49.266 130.455 50.346C130.455 51.09 130.263 51.75 129.879 52.326C129.507 52.902 128.979 53.352 128.295 53.676C127.623 53.988 126.849 54.144 125.973 54.144ZM139.491 50.526H134.613L133.407 54H131.517L136.179 41.4H137.943L142.623 54H140.733L139.491 50.526ZM138.969 49.05L137.079 43.758H136.989L135.135 49.05H138.969ZM149.315 54.162C147.719 54.162 146.477 53.676 145.589 52.704C144.701 51.732 144.257 50.316 144.257 48.456V41.4H146.093V48.384C146.093 49.404 146.309 50.328 146.741 51.156C147.185 51.972 148.043 52.38 149.315 52.38C150.551 52.38 151.385 51.972 151.817 51.156C152.261 50.34 152.483 49.416 152.483 48.384V41.4H154.337V48.456C154.337 50.316 153.887 51.732 152.987 52.704C152.099 53.676 150.875 54.162 149.315 54.162ZM156.758 41.4H159.512L162.95 50.418H163.004L166.424 41.4H169.178V54H167.342V44.19H167.27L163.616 54H162.32L158.666 44.19H158.594V54H156.758V41.4ZM177.01 54.126C175.798 54.126 174.76 53.85 173.896 53.298C173.044 52.734 172.396 51.966 171.952 50.994C171.508 50.01 171.286 48.9 171.286 47.664C171.286 46.428 171.508 45.318 171.952 44.334C172.396 43.338 173.05 42.558 173.914 41.994C174.778 41.418 175.81 41.13 177.01 41.13C178.198 41.13 179.218 41.412 180.07 41.976C180.934 42.54 181.588 43.32 182.032 44.316C182.476 45.3 182.698 46.422 182.698 47.682C182.698 48.93 182.476 50.04 182.032 51.012C181.588 51.984 180.934 52.746 180.07 53.298C179.218 53.85 178.198 54.126 177.01 54.126ZM176.992 52.434C177.76 52.434 178.426 52.23 178.99 51.822C179.554 51.414 179.986 50.85 180.286 50.13C180.586 49.398 180.736 48.57 180.736 47.646C180.736 46.722 180.586 45.9 180.286 45.18C179.986 44.448 179.554 43.872 178.99 43.452C178.426 43.032 177.76 42.822 176.992 42.822C176.224 42.822 175.558 43.032 174.994 43.452C174.43 43.872 173.998 44.448 173.698 45.18C173.398 45.912 173.248 46.734 173.248 47.646C173.248 48.558 173.398 49.38 173.698 50.112C173.998 50.832 174.43 51.402 174.994 51.822C175.558 52.23 176.224 52.434 176.992 52.434ZM184.847 41.4H186.971L193.199 51.066H193.253V41.4H195.107V54H192.947L186.755 44.532H186.701V54H184.847V41.4Z" fill="white"/>
</svg>
