<svg width="245" height="96" viewBox="0 0 245 96" fill="none" xmlns="http://www.w3.org/2000/svg">
<path d="M242.292 53.6011C153.673 -19.9604 79.1229 15.9091 3.43597 41.164C94.6222 116.102 166.722 79.6045 242.292 53.6011ZM5.11724 41.4137C82.5254 15.4251 154.19 -17.6283 240.607 53.4004C168.613 -9.71347 100.013 7.66584 5.11724 41.4137Z" fill="#7C9665"/>
<path d="M45.2477 40.4C46.2677 40.4 47.1077 40.604 47.7677 41.012C48.4277 41.42 48.9077 41.942 49.2077 42.578C49.5077 43.214 49.6577 43.892 49.6577 44.612C49.6577 45.32 49.5077 45.986 49.2077 46.61C48.9077 47.234 48.4277 47.75 47.7677 48.158C47.1077 48.554 46.2677 48.752 45.2477 48.752H42.6557V53H40.8377V40.4H45.2477ZM44.9957 47.168C45.7997 47.168 46.4777 46.976 47.0297 46.592C47.5817 46.208 47.8577 45.548 47.8577 44.612C47.8577 43.676 47.5817 43.022 47.0297 42.65C46.4777 42.266 45.7997 42.074 44.9957 42.074H42.6557V47.168H44.9957ZM57.8488 49.526H52.9708L51.7648 53H49.8748L54.5368 40.4H56.3008L60.9808 53H59.0908L57.8488 49.526ZM57.3268 48.05L55.4368 42.758H55.3468L53.4928 48.05H57.3268ZM54.6628 36.512H56.1748L58.6048 39.212H56.8048L55.4368 37.7H55.3648L53.9968 39.212H52.2328L54.6628 36.512ZM69.8851 42.056H66.2671V53H64.4131V42.056H60.7951V40.4H69.8851V42.056ZM73.6828 42.056V45.836H78.9568V47.33H73.6828V51.344H79.7488V53H71.7928V40.4H79.7488V42.056H73.6828ZM86.3073 53.144C85.3233 53.144 84.4773 52.946 83.7693 52.55C83.0733 52.142 82.5453 51.62 82.1853 50.984C81.8373 50.348 81.6633 49.682 81.6633 48.986V48.896H83.7153V48.986C83.7153 49.37 83.8053 49.754 83.9853 50.138C84.1653 50.51 84.4533 50.828 84.8493 51.092C85.2453 51.344 85.7433 51.47 86.3433 51.47C87.0753 51.47 87.6693 51.284 88.1253 50.912C88.5933 50.54 88.8273 50.036 88.8273 49.4C88.8273 48.872 88.6473 48.452 88.2873 48.14C87.9393 47.828 87.4953 47.618 86.9553 47.51L85.2273 47.168C84.4713 47.012 83.7393 46.694 83.0312 46.214C82.3353 45.722 81.9873 44.906 81.9873 43.766C81.9873 43.034 82.1613 42.392 82.5093 41.84C82.8693 41.288 83.3673 40.868 84.0033 40.58C84.6393 40.28 85.3653 40.13 86.1813 40.13C87.1173 40.13 87.9213 40.316 88.5933 40.688C89.2653 41.06 89.7693 41.546 90.1053 42.146C90.4533 42.734 90.6273 43.352 90.6273 44V44.072H88.5753V44.018C88.5753 43.694 88.4973 43.358 88.3413 43.01C88.1853 42.662 87.9213 42.368 87.5493 42.128C87.1893 41.876 86.7153 41.75 86.1273 41.75C85.4313 41.75 84.8793 41.942 84.4713 42.326C84.0753 42.698 83.8773 43.166 83.8773 43.73C83.8773 44.222 84.0453 44.624 84.3813 44.936C84.7293 45.248 85.1793 45.458 85.7313 45.566L87.3333 45.89C88.2573 46.082 89.0613 46.436 89.7453 46.952C90.4413 47.468 90.7893 48.266 90.7893 49.346C90.7893 50.09 90.5973 50.75 90.2133 51.326C89.8413 51.902 89.3133 52.352 88.6293 52.676C87.9573 52.988 87.1833 53.144 86.3073 53.144ZM102.346 53.126C101.158 53.126 100.132 52.844 99.2682 52.28C98.4162 51.704 97.7682 50.924 97.3242 49.94C96.8802 48.956 96.6582 47.852 96.6582 46.628C96.6582 45.404 96.8802 44.3 97.3242 43.316C97.7802 42.332 98.4342 41.558 99.2862 40.994C100.15 40.418 101.17 40.13 102.346 40.13C103.786 40.13 104.968 40.538 105.892 41.354C106.816 42.17 107.428 43.256 107.728 44.612H105.91C105.694 43.772 105.268 43.094 104.632 42.578C104.008 42.062 103.252 41.804 102.364 41.804C101.152 41.804 100.222 42.242 99.5742 43.118C98.9262 43.994 98.6022 45.164 98.6022 46.628C98.6022 48.092 98.9262 49.262 99.5742 50.138C100.222 51.014 101.152 51.452 102.364 51.452C103.216 51.452 103.942 51.218 104.542 50.75C105.142 50.282 105.568 49.676 105.82 48.932H107.638C107.314 50.192 106.696 51.206 105.784 51.974C104.872 52.742 103.726 53.126 102.346 53.126ZM116.12 49.526H111.242L110.036 53H108.146L112.808 40.4H114.572L119.252 53H117.362L116.12 49.526ZM115.598 48.05L113.708 42.758H113.618L111.764 48.05H115.598ZM124.936 48.122H122.866V53H121.012V40.4H125.422C126.442 40.4 127.282 40.592 127.942 40.976C128.602 41.348 129.082 41.828 129.382 42.416C129.682 43.004 129.832 43.628 129.832 44.288C129.832 45.152 129.586 45.926 129.094 46.61C128.602 47.294 127.846 47.75 126.826 47.978L129.994 53H127.978L124.936 48.122ZM122.866 46.556H125.17C125.974 46.556 126.652 46.388 127.204 46.052C127.756 45.704 128.032 45.116 128.032 44.288C128.032 43.472 127.756 42.896 127.204 42.56C126.652 42.224 125.974 42.056 125.17 42.056H122.866V46.556ZM132.209 40.4H137.339C138.167 40.4 138.845 40.556 139.373 40.868C139.913 41.18 140.303 41.582 140.543 42.074C140.783 42.554 140.903 43.064 140.903 43.604C140.903 44.132 140.795 44.588 140.579 44.972C140.363 45.356 140.093 45.662 139.769 45.89C139.457 46.106 139.157 46.244 138.869 46.304V46.412C139.205 46.448 139.577 46.574 139.985 46.79C140.393 46.994 140.747 47.312 141.047 47.744C141.359 48.176 141.515 48.722 141.515 49.382C141.515 49.982 141.377 50.558 141.101 51.11C140.837 51.662 140.417 52.118 139.841 52.478C139.265 52.826 138.539 53 137.663 53H132.209V40.4ZM136.799 45.836C137.423 45.836 137.963 45.674 138.419 45.35C138.887 45.014 139.121 44.504 139.121 43.82C139.121 43.16 138.899 42.68 138.455 42.38C138.011 42.08 137.459 41.93 136.799 41.93H134.027V45.836H136.799ZM137.213 51.47C137.909 51.47 138.497 51.308 138.977 50.984C139.469 50.648 139.715 50.096 139.715 49.328C139.715 48.584 139.469 48.05 138.977 47.726C138.497 47.402 137.909 47.24 137.213 47.24H134.027V51.47H137.213ZM148.576 53.126C147.364 53.126 146.326 52.85 145.462 52.298C144.61 51.734 143.962 50.966 143.518 49.994C143.074 49.01 142.852 47.9 142.852 46.664C142.852 45.428 143.074 44.318 143.518 43.334C143.962 42.338 144.616 41.558 145.48 40.994C146.344 40.418 147.376 40.13 148.576 40.13C149.764 40.13 150.784 40.412 151.636 40.976C152.5 41.54 153.154 42.32 153.598 43.316C154.042 44.3 154.264 45.422 154.264 46.682C154.264 47.93 154.042 49.04 153.598 50.012C153.154 50.984 152.5 51.746 151.636 52.298C150.784 52.85 149.764 53.126 148.576 53.126ZM148.558 51.434C149.326 51.434 149.992 51.23 150.556 50.822C151.12 50.414 151.552 49.85 151.852 49.13C152.152 48.398 152.302 47.57 152.302 46.646C152.302 45.722 152.152 44.9 151.852 44.18C151.552 43.448 151.12 42.872 150.556 42.452C149.992 42.032 149.326 41.822 148.558 41.822C147.79 41.822 147.124 42.032 146.56 42.452C145.996 42.872 145.564 43.448 145.264 44.18C144.964 44.912 144.814 45.734 144.814 46.646C144.814 47.558 144.964 48.38 145.264 49.112C145.564 49.832 145.996 50.402 146.56 50.822C147.124 51.23 147.79 51.434 148.558 51.434ZM156.414 40.4H158.538L164.766 50.066H164.82V40.4H166.674V53H164.514L158.322 43.532H158.268V53H156.414V40.4ZM176.466 49.526H171.588L170.382 53H168.492L173.154 40.4H174.918L179.598 53H177.708L176.466 49.526ZM175.944 48.05L174.054 42.758H173.964L172.11 48.05H175.944ZM185.281 48.122H183.211V53H181.357V40.4H185.767C186.787 40.4 187.627 40.592 188.287 40.976C188.947 41.348 189.427 41.828 189.727 42.416C190.027 43.004 190.177 43.628 190.177 44.288C190.177 45.152 189.931 45.926 189.439 46.61C188.947 47.294 188.191 47.75 187.171 47.978L190.339 53H188.323L185.281 48.122ZM183.211 46.556H185.515C186.319 46.556 186.997 46.388 187.549 46.052C188.101 45.704 188.377 45.116 188.377 44.288C188.377 43.472 188.101 42.896 187.549 42.56C186.997 42.224 186.319 42.056 185.515 42.056H183.211V46.556ZM198.755 49.526H193.877L192.671 53H190.781L195.443 40.4H197.207L201.887 53H199.997L198.755 49.526ZM198.233 48.05L196.343 42.758H196.253L194.399 48.05H198.233Z" fill="white"/>
</svg>
