<svg width="57" height="57" viewBox="0 0 57 57" fill="none" xmlns="http://www.w3.org/2000/svg">
<path d="M42.75 7.125C43.3317 7.12508 43.8932 7.33865 44.3279 7.7252C44.7626 8.11175 45.0403 8.6444 45.1084 9.22212L45.125 9.5V47.5C45.1243 48.1053 44.8925 48.6876 44.477 49.1277C44.0614 49.5679 43.4935 49.8328 42.8892 49.8683C42.2849 49.9038 41.6898 49.7071 41.2256 49.3186C40.7614 48.9301 40.4631 48.379 40.3916 47.7779L40.375 47.5V35.625H38C37.4183 35.6249 36.8568 35.4114 36.4221 35.0248C35.9874 34.6382 35.7097 34.1056 35.6416 33.5279L35.625 33.25V19C35.625 13.7512 39.1875 7.125 42.75 7.125ZM28.5 7.125C29.0817 7.12508 29.6432 7.33865 30.0779 7.7252C30.5126 8.11175 30.7903 8.6444 30.8584 9.22212L30.875 9.5V21.375C30.8747 23.4813 30.1748 25.5279 28.8852 27.1932C27.5955 28.8586 25.7892 30.0484 23.75 30.5757V47.5C23.7493 48.1053 23.5175 48.6876 23.102 49.1277C22.6864 49.5679 22.1185 49.8328 21.5142 49.8683C20.9099 49.9038 20.3148 49.7071 19.8506 49.3186C19.3864 48.9301 19.0881 48.379 19.0166 47.7779L19 47.5V30.5757C17.0417 30.0695 15.296 28.9517 14.0167 27.385C12.7374 25.8182 11.9913 23.8842 11.8869 21.8643L11.875 21.375V9.5C11.8757 8.89466 12.1075 8.31242 12.523 7.87225C12.9386 7.43208 13.5065 7.16719 14.1108 7.13172C14.7151 7.09624 15.3102 7.29285 15.7744 7.68138C16.2386 8.06991 16.5369 8.62102 16.6084 9.22212L16.625 9.5V21.375C16.625 22.2088 16.8445 23.0279 17.2614 23.7499C17.6783 24.472 18.2779 25.0716 19 25.4885V9.5C19.0007 8.89466 19.2325 8.31242 19.648 7.87225C20.0636 7.43208 20.6315 7.16719 21.2358 7.13172C21.8401 7.09624 22.4352 7.29285 22.8994 7.68138C23.3636 8.06991 23.6619 8.62102 23.7334 9.22212L23.75 9.5L23.7524 25.4885C24.4151 25.1054 24.9755 24.5678 25.3857 23.9214C25.7959 23.2751 26.0439 22.5392 26.1084 21.7764L26.125 21.375V9.5C26.125 8.87011 26.3752 8.26602 26.8206 7.82062C27.266 7.37522 27.8701 7.125 28.5 7.125Z" fill="#4A919F"/>
</svg>
