<svg width="153" height="39" viewBox="0 0 153 39" fill="none" xmlns="http://www.w3.org/2000/svg">
<path d="M150.333 17.3203L140.747 16.4937L137 7.66699L133.253 16.507L123.667 17.3203L130.947 23.627L128.76 33.0003L137 28.027L145.24 33.0003L143.067 23.627L150.333 17.3203ZM137 25.5337V13.1337L139.28 18.5203L145.12 19.027L140.693 22.867L142.027 28.5737L137 25.5337Z" fill="#4A919F"/>
<path d="M15.5 27.2884L23.225 32L21.175 23.12L28 17.1453L19.0125 16.3747L15.5 8L11.9875 16.3747L3 17.1453L9.825 23.12L7.775 32L15.5 27.2884Z" fill="#4A919F"/>
<path d="M45.5 27.2884L53.225 32L51.175 23.12L58 17.1453L49.0125 16.3747L45.5 8L41.9875 16.3747L33 17.1453L39.825 23.12L37.775 32L45.5 27.2884Z" fill="#4A919F"/>
<path d="M76 27.2884L84.034 32L81.902 23.12L89 17.1453L79.653 16.3747L76 8L72.347 16.3747L63 17.1453L70.098 23.12L67.966 32L76 27.2884Z" fill="#4A919F"/>
<path d="M106 27.2884L114.034 32L111.902 23.12L119 17.1453L109.653 16.3747L106 8L102.347 16.3747L93 17.1453L100.098 23.12L97.966 32L106 27.2884Z" fill="#4A919F"/>
</svg>
