<svg width="242" height="61" viewBox="0 0 242 61" fill="none" xmlns="http://www.w3.org/2000/svg">
<path d="M237.782 27.091L222.619 25.798L216.693 11.9922L210.767 25.8189L195.604 27.091L207.118 36.9553L203.66 51.6161L216.693 43.8373L229.726 51.6161L226.288 36.9553L237.782 27.091ZM216.693 39.9375V20.5426L220.299 28.9679L229.536 29.7604L222.535 35.7665L224.644 44.6924L216.693 39.9375Z" fill="#4A919F"/>
<path d="M24.5164 42.6827L36.735 50.0521L33.4925 36.1629L44.2876 26.8178L30.0721 25.6126L24.5164 12.5137L18.9606 25.6126L4.74512 26.8178L15.5402 36.1629L12.2977 50.0521L24.5164 42.6827Z" fill="#4A919F"/>
<path d="M71.9675 42.6827L84.1862 50.0521L80.9437 36.1629L91.7388 26.8178L77.5233 25.6126L71.9675 12.5137L66.4118 25.6126L52.1963 26.8178L62.9914 36.1629L59.7489 50.0521L71.9675 42.6827Z" fill="#4A919F"/>
<path d="M120.21 42.6827L132.917 50.0521L129.545 36.1629L140.772 26.8178L125.988 25.6126L120.21 12.5137L114.432 25.6126L99.6475 26.8178L110.874 36.1629L107.502 50.0521L120.21 42.6827Z" fill="#4A919F"/>
<path d="M167.66 42.6827L180.367 50.0521L176.995 36.1629L188.222 26.8178L173.438 25.6126L167.66 12.5137L161.882 25.6126L147.098 26.8178L158.325 36.1629L154.952 50.0521L167.66 42.6827Z" fill="#4A919F"/>
</svg>
