<svg width="57" height="57" viewBox="0 0 57 57" fill="none" xmlns="http://www.w3.org/2000/svg">
<path d="M28.4772 4.74805C15.3672 4.74805 4.75098 15.388 4.75098 28.498C4.75098 41.608 15.3672 52.248 28.4772 52.248C41.611 52.248 52.251 41.608 52.251 28.498C52.251 15.388 41.611 4.74805 28.4772 4.74805ZM28.501 47.498C18.0035 47.498 9.50098 38.9955 9.50098 28.498C9.50098 18.0005 18.0035 9.49805 28.501 9.49805C38.9985 9.49805 47.501 18.0005 47.501 28.498C47.501 38.9955 38.9985 47.498 28.501 47.498ZM27.9785 16.623H27.836C26.886 16.623 26.126 17.383 26.126 18.333V29.543C26.126 30.3743 26.5535 31.158 27.2897 31.5855L37.146 37.4993C37.9535 37.9743 38.9985 37.7368 39.4735 36.9293C39.5927 36.737 39.6721 36.5226 39.7068 36.299C39.7414 36.0754 39.7308 35.8471 39.6754 35.6277C39.62 35.4083 39.521 35.2023 39.3843 35.022C39.2476 34.8417 39.076 34.6907 38.8797 34.578L29.6885 29.1155V18.333C29.6885 17.383 28.9285 16.623 27.9785 16.623Z" fill="#4A919F"/>
</svg>
